<svg xmlns="http://www.w3.org/2000/svg" xmlns:xlink="http://www.w3.org/1999/xlink" width="1000" zoomAndPan="magnify" viewBox="0 0 750 749.999995" height="1000" preserveAspectRatio="xMidYMid meet" version="1.0"><path fill="#100f0d" d="M 502.207031 575.765625 C 493.96875 568.941406 481.753906 570.089844 474.921875 578.3125 L 394.46875 675.320312 L 394.46875 20.980469 C 394.46875 10.292969 385.796875 1.625 375.09375 1.625 C 364.398438 1.625 355.71875 10.292969 355.71875 20.980469 L 355.71875 675.320312 L 275.265625 578.3125 C 268.441406 570.089844 256.21875 568.941406 247.980469 575.765625 C 239.742188 582.59375 238.601562 594.796875 245.433594 603.03125 L 360.179688 741.367188 C 363.859375 745.808594 369.328125 748.375 375.09375 748.375 C 380.859375 748.375 386.328125 745.808594 390.007812 741.367188 L 504.753906 603.03125 C 511.585938 594.796875 510.445312 582.59375 502.207031 575.765625 " fill-opacity="1" fill-rule="nonzero"/></svg>